<svg style="height: 512px; width: 512px;" xmlns="http://www.w3.org/2000/svg" viewBox="0 0 512 512"><g class="" style="" transform="translate(0,0)"><g><path d="M275.5 96L179.5 192L83.5 192L83.5 320L179.5 320L275.5 416L275.5 96Z" class="" fill="#fff" fill-opacity="1"></path><path d="M326.96 123.668L322.3 141.055C374.366 155.005 410.5 202.095 410.5 256C410.5 309.904 374.366 356.994 322.3 370.945L326.96 388.332C386.81 372.295 428.5 317.962 428.5 256C428.5 194.037 386.81 139.705 326.96 123.668Z" class="selected" fill="#ffffff" fill-opacity="1"></path><path d="M314.535 170.033L309.877 187.42C340.96 195.748 362.5 223.822 362.5 256C362.5 288.178 340.96 316.252 309.877 324.58L314.535 341.967C353.402 331.552 380.5 296.237 380.5 256C380.5 215.762 353.402 180.448 314.535 170.033Z" class="" fill="#fff" fill-opacity="1"></path><path d="M302.111 216.396L297.454 233.783C307.55 236.49 314.5 245.547 314.5 256C314.5 266.453 307.55 275.51 297.453 278.217L302.111 295.604C319.995 290.812 332.501 274.514 332.501 256C332.501 237.487 319.995 221.188 302.111 216.396Z" class="" fill="#fff" fill-opacity="1"></path></g></g></svg>